<svg xmlns="http://www.w3.org/2000/svg" width="1570" height="1002">
<rect x="1025" y="-160" width="330" height="300" fill="#ffffff" transform="rotate(20)" rx="40" />
<path fill="#040505" fill-rule="evenodd" stroke="#040505" stroke-linejoin="round" stroke-width=".8" d="M954.5 181a56 56 0 0 0-49 50 55 55 0 0 0 14.2 40.5c3 3.7 5.3 7.2 5 7.8a344.7 344.7 0 0 0-41.5 79.7q-13.1 33.9-14.7 34c-.4 0-2.8-1.5-5.3-3.3-22.8-16.5-59.7-28.5-80.7-26.2a58 58 0 0 0-45 26.4c-2.7 4.8-3.2 5.2-6 4.7l-26.5-4.5a640 640 0 0 0-160-8c-132.5 11.6-205.2 76.3-216.5 193l-.6 6.6-6.2 1.7c-8 2.3-26.6 9.5-34.8 13.6-27.3 13.8-43.5 35.8-38.9 53 1.4 5.2 6.6 11 10.8 11.8 2.4.5 3.2 1.2 4.1 4.3 2.9 9.5 15.9 12.8 28.3 7.3 3.5-1.6 13.6-8.4 22.6-15.1a125 125 0 0 1 18-12.3c1.5 0 2.3 1.5 3.7 6.7 1 3.7 3 10.1 4.7 14.3l2.8 8c0 .4-12.7 6.5-28.2 13.5C270 708.8 263.6 713 257 726c-4.6 9-2 24.2 4.6 27.2 1.3.6 2.4 2 2.4 3 0 4.7 5.2 10.7 11 12.7 10.5 3.5 22.1-.2 49.5-15.9 16.3-9.3 51-28 52-28 .6 0 4 2.5 7.5 5.6 31.6 27.6 71.3 43.3 125.5 49.8 32.5 3.9 62.4 4.3 194.2 2.6 171.3-2.2 250-4 285.3-6.5 119.7-8.7 191.3-39.1 251.7-106.8l6.9-7.8 4.4 1.6c9.6 3.5 31.1 8.4 43.5 10q50 6.5 53.2-27.9c.8-8.3-.6-15.5-7.8-43.1-7-26.4-7.2-27.9-2-45.5a90 90 0 0 0 3.1-13.8c0-4.6-4-11.2-7.8-13.3l-3.9-2.3c-.2-.2 1.3-4.4 3.5-9.3 8.5-19.1 19.2-54 19.2-62.7 0-2.2.7-2.4 10-3a57 57 0 0 0 26-6.6c16.5-8.3 26-25.5 26-47 0-17.7-5.1-30.2-17.5-42.6a52 52 0 0 0-43.5-17c-5.2.2-10.4.8-11.5 1-1.6.6-2.5-.5-5.4-6-26.7-51.9-107.6-99.8-199-117.8-39.2-7.7-79.4-8.2-110.5-1.5l-9.7 1.9c-.4 0-2.2-2.8-4-6.2a61 61 0 0 0-59.4-29.9zm23.2 8a54 54 0 0 1 29.3 22c4.6 7.1 4.2 8-4.7 11.4-4.3 1.5-11.1 4.4-15.1 6.3-4 2-7.7 3.1-8.1 2.6l-4-5c-3.3-4.4-11.7-9.3-15.8-9.3a23 23 0 0 0-12.1 5.3c-7.5 7-7.3 19.5.5 27.8l2.4 2.6-10.2 10.4-10.2 10.3-5.1-5.6a47 47 0 0 1-8.7-53.3 52 52 0 0 1 61.8-25.4zm133.6 29.5c62.3 7.5 127.4 32.3 172.7 65.9 13.7 10 33.3 30 40.9 41.6a169 169 0 0 1 24.8 59.5 235 235 0 0 1 0 58c-4.1 25.1-11.6 50.3-22.1 74.3-3.4 7.7-6 11.9-10 16.2a41 41 0 0 0-7.9 12.3c-2 4.9-4 7.9-8.5 12.1a58 58 0 0 0-9.3 11.9 23 23 0 0 0-3.5 13.9c-.1 8.6-.5 9.3-17.8 35.3-60.6 91.3-126.6 131.7-240.1 147-38.4 5-80.5 6.9-194 8.5-266 3.6-287.7 3.6-318.2.5-63.3-6.6-107.5-25-139.3-58.2-31.6-32.9-46.2-75-44.7-128.8 1.2-44.5 12.5-82.8 33.6-114 43-63.7 127.3-93 251.9-87.6 35.1 1.6 52.5 3.5 90.7 10.2 10.7 1.9 16 2.8 18.4 3.5s2 1.4 1.7 2.7l-2.2 9.9c-2.7 13.1.8 22.4 9.1 24.4 1.7.4 4.2 1.7 5.7 3 10.7 8.8 29.2-1.2 44.6-24.4q3.5-5.2 5.1-4.8a2609.9 2609.9 0 0 1 28.6 5.2c14.5 2.6 22 3.5 27.2 3.2 7-.3 7.4-.5 11.9-4.8 9.3-9.2 14.8-19.6 27-51 9.6-25.2 20.4-48 29-61.5 33.7-53.6 75-79 138.4-85.5 11.5-1.2 40.6-.4 56.3 1.5zm261.3 129a53 53 0 0 1 35 37 51 51 0 0 1 1.2 17.4c-.4 10.5-.7 12.3-3.6 18.4q-11.4 24.2-41.6 26.4l-9 .6.7-3.9c.4-2.1 1.2-10.7 1.9-19.1 1.2-15 1.2-15.2 3.7-15.8 7-1.8 11-7.6 11-15.7 0-10.4-5.8-17.7-14.8-18.8-4.4-.5-4.5-.6-5.6-5-.7-2.5-2.7-8.5-4.5-13.3a43 43 0 0 1-2.9-9.4c1-1 12.4-1.9 16.9-1.5 2.5.3 7.7 1.4 11.6 2.7zm-565.1 24c11.3 2.4 18.3 4.9 32.1 11.5 12.7 6 24.1 13.2 25 15.6q1.1 2.4-6.8 11c-5.7 6.2-7.5 6.3-34.6 1.5a728 728 0 0 0-28.8-4.7l-5.9-.6-5.3 7.6a71 71 0 0 1-21.4 22c-6.4 3.2-12.7 3.5-15.3.6-1.7-1.8-1.6-2.2 1.3-8.4a91 91 0 0 1 5.5-10.1c2.7-4 2.6-6.5-.2-6.5-2 0-9.3 11-11.4 17-1.7 5.2-2.6 5.7-5.7 3.2-4.8-4-3.6-19 2.7-32.2 4.5-9.3 15-20.4 23.3-24.2 12.4-5.9 28.2-7 45.5-3.3zM1333 536c3.5 3.5 3.5 6.7.1 20-2.6 10.1-4 15.2-3.7 21 .2 5.7 2 12 5.4 25 7 26.2 8.2 32 8.2 41 0 10.6-3.8 17.4-12.2 21.6q-15.1 7.8-50.5.4a162 162 0 0 1-27.6-8c-.5-.4 1.8-4.4 5-8.7l10.6-14.7c4-5.7 5.2-6.7 7-6.2 9.5 2.5 29 5.7 30 4.7.7-.7-.7-7-4.7-21-6.9-23.9-7.7-29.9-4.9-36.2 2.8-6.1 10-15 12.2-15 2.5 0 3.5-1.5 5.1-7.2a45 45 0 0 1 10.7-17.6c2.9-1.7 7.1-1.3 9.3.9zM328.3 604.3c.3 8.9 1 18.9 1.6 22.2l1.6 8.7c.4 2.4-.3 3.2-5.8 7a496 496 0 0 0-18.5 13.5c-14.2 11-20.7 14.3-27.5 14.3-5.2 0-10.1-2-11-4.6-1.9-4.5-.7-6.7 8.4-16q9.3-9.3 8.5-10.9c-1.1-3-4-1.3-13.4 8a54 54 0 0 1-11.1 9.5c-5.1 0-8.7-7-7.8-15 2-16.5 20.6-33.2 50.2-45 8.7-3.6 21.3-7.9 23-8q1.2 0 1.8 16.2zm968.6 14.7c1 3.5 1.9 6.6 1.6 6.8-.4.4-21.5-3.9-21.5-4.4 0-.4 10.5-17.4 12.6-20.3 1.7-2.4 1.7-2.6 3.4 4.3 1 3.8 2.7 10 3.9 13.6zm-947.3 68.3c3.5 6.8 11 18 17.4 25.6a34 34 0 0 1 5 7c0 .6-5.3 3.8-11.8 7-6.4 3.3-22.3 11.8-35.2 19-26.6 14.8-32 17.2-40.6 17.9q-14.3 1-14.4-9.9c0-3.6 4.6-10.2 12.4-17.9 4.8-4.6 5.6-6.7 3.1-7.6-2.3-1-15.2 11.3-19.5 18.4-1 1.6-1.2 1.5-2.9-.5q-4.4-5.2-1.6-15c2.6-9 10-15.5 26.6-23.7a681 681 0 0 1 56.6-25.5c1.7 0 2.9 1.1 5 5.2zM1038 236.6c-26.4 5.2-44 18-54.5 40a71 71 0 0 0 16.5 82.6 86 86 0 0 0 61.5 21.4 71 71 0 0 0 62.1-102.3c-12.4-24.4-40.5-41-71-41.8-6.7-.2-13.2-.2-14.6.1zm33.5 7.4a95 95 0 0 1 30.3 15.4c24.6 20.2 30.9 50.7 16.5 80.5-25.7 53.6-113.4 45.5-133.3-12.3a66 66 0 0 1 17.1-68.7c8.9-8.5 22.6-15 36.4-17.2 6.8-1.1 25.1.2 33 2.3zm-62 32.8c-16.5 7.7-19 32.5-4.1 41.6a22 22 0 0 0 28.7-4.2c4.5-5.1 6.2-9.8 6.3-17.3 0-8-3.3-14.5-9.6-18.6a25 25 0 0 0-21.3-1.5zm20 26.4q3 4.3-.5 7.8c-5.4 5.4-13.4-2.5-8.3-8.2 2.3-2.5 6.8-2.3 8.7.4zm182.2-2.6A77 77 0 0 0 1161 336a68 68 0 0 0 2.5 72.8 84 84 0 0 0 70.6 36.4c14.4.1 22.5-1.7 34.9-7.9a73 73 0 0 0 39.2-58c4.2-32.7-16.7-63.8-50.6-75.4a90 90 0 0 0-45.8-3.3zm33.1 5c4.2.9 11 2.9 15 4.4a66 66 0 0 1 43.3 69.6 68 68 0 0 1-80.3 60c-38.2-5.6-65.8-34.5-66.1-69-.4-42.8 42.5-74.4 88.1-65zm-57 34.3a25.7 25.7 0 0 0-15.4 34.7 21.4 21.4 0 0 0 37 3.9c4.1-5.3 5.6-9.8 5.6-16.8a22 22 0 0 0-27.2-21.8zm15.4 27.8c3.7 3.3 1 10.3-4 10.3s-7-6.3-3.5-10.2c2-2.2 5-2.3 7.5-.1zm-98.5 14.7c-5.7 1.6-9.4 4-12.2 8.3-1.8 2.8-2.6 3-9 3.6-10.4.8-15.8 3.1-22.1 9.2-6.7 6.6-9.4 12.1-9.4 19.5 0 8.8 2.6 13.1 12 19.7.2.2-1 3.2-2.8 6.7-1.8 3.6-4 10-4.8 14.2-4 19.6 4.5 31.2 20 26.8 5-1.5 7.3-2.2 8.5-2s1.3 1.5 2 4c.7 3 2.6 6.3 5 8.9 3.8 4 4.1 4.2 11.3 4.5 12 .6 15.4-3 22.8-24.5 2-5.6 3.8-9.3 4.6-9.3s2.8.9 4.6 2c7.2 4.3 16.4 3.5 24-2.3 5.7-4.4 7.6-7.3 8.7-13.2 1.8-9.4-1.7-19.3-11-31.8l-5-6.7 1.2-5.2c1.7-7.8 0-12.7-6.7-19.8a44 44 0 0 0-41.7-12.6zm-17.4 17c1.2.4 3 2.5 4 5.2a29 29 0 0 0 14.5 14.2c12.5 6.6 27.3 9 37 6.1 5-1.5 6.2-.7 12.4 8.3q11.4 16.7 6.4 28.2c-2.8 6.6-12.5 11.3-20.1 9.6-4.4-1-7.7-3.5-18.4-13.9-12-11.7-16.6-13.7-35.7-15.6a200 200 0 0 1-18.4-2.5c-13.7-4-16.2-19.9-4.8-31.2 6.4-6.4 16.5-10.1 23-8.3zm-2.3 46.7a91 91 0 0 1 14.3 1.8c.4.4-.8 3.3-2.7 6.5-1.9 3.1-5 10-7.1 15.4-4.2 11-6.4 13.5-14 15.7-4.7 1.4-5.7 1.4-8.8.1-6.7-2.8-8.5-14.3-4.1-27.2 2-6.2 6.2-13.4 7.8-13.4zm24 5.5c4.5 3 16 14.8 16 16.4 0 2-7.2 22.5-9.3 26.7-2.5 4.8-5.2 6.3-11.6 6.3-4.8 0-6-.4-8.3-2.8a30 30 0 0 1-5.8-14.1c0-4.1 14-34.1 15.8-34.1.4 0 1.9.7 3.2 1.6z"/><path fill="#74cce0" fill-rule="evenodd" stroke="#74cce0" stroke-linejoin="round" stroke-width=".8" d="m952 181.2-6.7 1.5c-1.8.3-3.3 1-3.3 1.4 0 .5-1 .9-2 .9-3 0-9.8 3.7-12.6 6.7-1.4 1.5-3.4 3.1-4.6 3.7-1.3.6-2.7 2-3.3 3.2-.6 1.1-2.4 3.5-4.2 5.2-1.7 1.7-3 3.7-3 4.4.1 2-2.4 7.8-3.4 7.8-.5 0-.9 1.3-.9 3s-.5 3-1.1 3q-1.2-.1-.5 2.5.5 2.3-.1 2.5c-.4 0-.8 3.6-.8 8s.2 8 .7 8 .7 1.9.6 4.2.5 4.4 1 4.6c.7.2 1.2 1.4 1.2 2.7s.7 3 1.5 3.8c.8.9 1.5 2.2 1.5 3 0 1 .9 2 1.9 2.6s2.3 2.3 2.9 3.8a9 9 0 0 0 3.8 4.3c3.8 1.9 6.4 4 6.4 5.3q0 1-.6.4c-.4-.4-1.7 1.3-3 3.9a27 27 0 0 1-4.3 6.4c-2.3 2-9 12-9 13.7 0 .7-1.2 2.4-2.6 3.9-1.3 1.5-2.2 3-2 3.5.7 1-1.6 6-2.7 6-1 0-5.5 9.3-6.2 13a13 13 0 0 1-2.6 4.9 9 9 0 0 0-2 4.6c0 1.3-.7 3-1.5 3.8s-1.5 2.4-1.5 3.6c0 1-.4 2-1 2s-1 1.1-1 2.5-.4 2.5-1 2.5c-.4 0-1.1 1.5-1.5 3.2-.7 3-1 4-3.5 8.9a9 9 0 0 0-1 3c0 .6-.7 2.8-1.6 4.8l-2.6 6.1-2.9 6.2c-1 2-1.9 4.2-1.9 5 0 2.7-2 3.8-4.6 2.1-2-1.3-2.6-1.3-4-.3-1.3 1.2-1.2 1.6 1 4 1.5 1.4 2.6 3.3 2.6 4 0 2.4-7.4 12.4-10 13.8-4.2 2-13.6 1.4-39.7-3l-25.3-4.1-2.6 2.4c-1.4 1.3-5 5.8-7.8 10-8.7 12.3-17 18.5-26.4 19.5-4 .5-5.3.1-9.5-2.5-2.6-1.7-5.4-3.1-6.2-3.1-4.6 0-6-12.9-2.6-23.8q2-6.2.8-7.1c-.8-.8-.2-2 2.1-4.4 1.8-1.8 3.2-3.6 3.2-4 0-2.8 16-17.7 19-17.7.5 0 3-1 5.7-2.2s7-2.3 9.8-2.5c3.7-.2 5.6-1 7.7-3 1.5-1.4 2.5-3 2.3-3.4-.7-1-11.3-.3-12.8.9-.6.5-2.5 1-4.1 1-1.7 0-3.2.5-3.4 1q-.5 1.1-2.3 1.2a6 6 0 0 0-3.6 1.4c-.9.8-2.2 1.6-3.2 1.6s-3 1.1-4.5 2.5-3 2.5-3.4 2.5c-1.2 0-8.2 7.4-8.2 8.7q0 1-1.5 1.7-1.4.6-1.5 2.2c0 2.6-3.5 5.4-6.8 5.4-1.6 0-8.7-1-15.8-2.4-7-1.4-14.7-2.7-16.9-3s-9.6-1.3-16.5-2.4c-24.2-3.9-34.8-4.6-80.5-5.7a440 440 0 0 0-119.5 12c-4 1-9.3 2.5-11.5 3.5s-6 2.3-8.5 3a59 59 0 0 0-11.3 4 8 8 0 0 1-3 1c-.8 0-1.7.4-1.7 1 0 .4-1.4 1.2-3.2 1.5-3.7.9-15.1 6.3-15.6 7.6-.1.4-2 1.3-3.8 1.9-1.9.6-3.5 1.5-3.5 2q0 .9-1.4 1t-1.5 1q0 .9-1.5 1c-1.8 0-9.5 5-9.5 6.1q-.1.8-1.3.9c-.8 0-2.2 1.1-3 2.5-1 1.4-2.4 2.5-3.2 2.5q-1.4.1-1.5 1t-2 1.8c-1.1.4-3.7 3-5.8 5.7s-6.3 6.9-9.4 9.3-5.8 5-5.8 5.7-.9 2-2 2.5c-1 .6-2 1.6-2 2.3s-.9 1.8-2 2.5c-1 .6-2 2-2 2.8 0 .9-1.3 2.8-3 4.4-1.6 1.5-3 3.7-3 5 0 1-.6 2.3-1.5 2.6q-1.4.6-1.5 2.5c0 1-.8 2.8-2 3.9a47 47 0 0 0-8 15.9c0 1-.6 2.6-1.5 3.4-.8.9-1.5 2.2-1.5 3a4 4 0 0 1-.9 2.2c-3.7 4-14.8 51.6-13.6 58.2q.6 3.2-.5 3.3c-.8 0-1 1-.4 4 .7 4.7-1.3 8-4.9 8-2.9 0-15.7 4.2-15.7 5.2q-.1.7-2.4.8c-1.3 0-2.7.4-3 1-.4.5-1.6 1-2.6 1s-2 .4-2 .9-1.4 1.2-3.2 1.6c-3.8.8-8.6 3.1-10.5 5.1-.8.8-2.5 1.6-3.8 2-1.4.3-2.6 1-2.6 1.4q-.2.7-2.3 1.4c-1.4.3-3 1.5-3.6 2.6-.6 1-1.6 2-2.3 2s-1.9 1-2.6 2.3-2.7 3-4.4 3.8a10 10 0 0 0-4.6 4.6c-.7 1.7-2.2 3.3-3.2 3.6q-1.8.6-2.5 3.6a9 9 0 0 1-2 4.2c-.7.6-1.4 2.6-1.4 4.5s-.3 3.4-.8 3.4c-1.2 0-.4 13.6 1 16.3q2.9 5.5 6 5.7 1.7 0 1.8 1 .1.8 1.8.8c2.5 0 4.2 2.1 4.2 4.8q0 2.1 4.5 5c2.5 1.6 4.5 3.2 4.5 3.6s2.2.8 4.7.8h4.7l-3.4-3.5c-1.8-2-3.9-3.5-4.6-3.5-1.2 0-14.3-13-20.4-20.3l-3.2-3.8 2.2-2.4q2.1-2.4 1.7-4c-.4-1 .2-2.8 1.3-4.3 1.1-1.4 2-2.9 2-3.4 0-3 13.1-18.8 15.6-18.8.6 0 2-1 3-2 1-1.1 2.3-2 3-2 .6 0 2-1 3-2 1-1.1 2.4-2 3.1-2 2 0 7.4-2.9 10-5.2 1.2-1.1 2.6-1.7 3.2-1.4s1.9.2 2.8-.3c3.3-1.7 6.8-3 13.8-5.2 3.9-1.2 7.8-2.9 8.7-3.7 3.6-3.1 4.6-1 5.3 11.5.6 11.4 1.8 24.2 3.5 36.8.4 3.6.4 6.4-.2 7.2q-1 1.2 1.1 2.5 2.2 1.2 2.1 4.5c0 1.8.5 3.3 1 3.3s1 1.4 1 3.2.6 4.4 1.3 5.8a41 41 0 0 1 3.6 12.4 957 957 0 0 1-38.9 18.4c-3.5 1.8-7 3.2-7.6 3.2s-2.3 1-3.7 2.3c-2.7 2.3-2.7 2.3-.8 4 2.1 2 3.2 1.7 6.9-1.6 1.2-1.2 2.5-1.8 2.9-1.4.9.9 7.4-2 10-4.5 1.2-1.1 2.6-1.7 3.2-1.4s2.9-1 5.1-3c3-2.7 4.4-3.4 5.3-2.6 1 .8 4-.3 11.6-4a89 89 0 0 1 10.6-4.6l3.5 6.3c5.4 9.9 14 21.5 22.3 30.1a70 70 0 0 1 7.7 9c0 1.5 5 7.3 6.4 7.3.8 0 1.9 1 2.5 2 .6 1.2 1.8 2 2.6 2a3 3 0 0 1 2.2 1.3c.5.7 2.2 2 3.8 2.8a73 73 0 0 1 11.5 8c.3.3 2.4 1.4 4.7 2.4s4.5 2.5 4.8 3.3q.6 1.2 1.5.8c1-.7 6.6 2 8.8 4.1.8.8 2.3 1.4 3.4 1.4 1 0 2.6.6 3.3 1.3.8.8 3.2 1.7 5.5 2s4 1.1 4 1.6 2.2 1.4 4.8 2l13.7 3.7a240 240 0 0 0 38 7.9 105.5 105.5 0 0 0 17 2l13 1c27.3 2.5 337.4-.7 427-4.5 111.7-4.8 177.6-23.2 234-65.5 25-18.7 60.5-56.8 79.7-85.6 1.5-2.3 1.7-2.3 3.6-.7 1 1 2.2 1.5 2.5 1.2s1.2-.3 1.9.2 2.4.9 3.7 1c1.3.2 4.6.7 7.2 1.3 5.6 1.2 7.4.8 11.1-2.7 2.4-2.2 2.6-2.8 1.6-5.6-.6-1.7-2-4.1-3-5.4-1.7-1.7-1.9-2.5-1-3.4 1-1 .7-1.7-1-3.5s-1.8-2.5-.9-3.7q1.5-1.4.1-2.1-1-.7-.6-1.9c.2-.6-.8-2.3-2.2-3.8-2.2-2.4-2.4-3-1.3-5.3.6-1.5 1.1-5.4 1.1-8.9 0-8 3.2-14.7 11.5-23.5 3.6-3.8 8-10 10.4-14.6 2.3-4.4 5.5-9.6 7.1-11.4 3-3.4 3-3.4 5-1.6 1.1 1 3 2.3 4.3 3 1.2.5 2.4 2 2.5 3.1s1.7 3.4 3.3 5l3 3V543c-.1-4.7-3.9-11.2-8.3-13.6l-3.7-2.1 4.5-11a341 341 0 0 0 18.4-57.6l1-5.5 9-.7c17.2-1.4 25.3-5 36.6-16.8 9.6-10 11.9-13.5 14-21.8a83 83 0 0 0-1.2-35.2 62 62 0 0 0-36.3-37c-3-1-7-2-8.8-2s-3.3-.4-3.3-1c0-.4-2.9-.8-6.5-.8s-6.5.3-6.5.8-2.3.8-5.3.9l-5.2.1-3.7-6.7c-6.4-11.7-21.1-30.6-23-29.5-1.3.8-7-4.8-6.4-6.3 1.2-3.1-32.7-28-54.2-39.8a337 337 0 0 0-42-19.5c-3.7-2-9-4-10.4-4q-1.4 0-2.3-1a243 243 0 0 0-36-11 301 301 0 0 0-50.5-9.6c-12.9-2-44.6-2.5-62.5-1-4.4.3-13.2 1.7-19.5 3-6.6 1.4-9.3 2.2-11.4 1.4s-3.3-3.4-6.9-8.8a27 27 0 0 0-6.4-7.5q-2.1-1-2.3-2c0-1.2-7.1-7.5-8.6-7.5-.6 0-2.1-1-3.4-2a14 14 0 0 0-5-2.7c-1.3-.4-3-1-3.5-1.5-3.7-2.9-23.6-4.6-30.5-2.7zm15 44.3c2.7 1.4 8 7.6 8 9.3 0 .5-2 2.2-4.2 3.7l-10.2 7.3-5.9 4.5-2.3-2.6c-3.3-4-5-12.2-3.2-17.2 2.3-7 10-9 17.9-5zm103.5 18.6c11.3 3 28 11 29.3 14.2q.5.6 1.6.7c.7 0 3.5 2.4 6.2 5.4 6.5 7.1 7.4 8.3 7.4 9.6q.1.9 1 1t1 1.5.9 1.5c.4 0 2.3 4.4 4.2 9.8 3 8.8 3.4 10.7 3.3 20.7 0 12.8-2.8 24.8-7.4 32.5l-3.7 6a83 83 0 0 1-15.5 16.3 78 78 0 0 1-87-1.5 66 66 0 0 1-22.9-84.6 66 66 0 0 1 50.6-35.6c5.9-.9 23.4.5 31 2.5zm179.8 62.9a88 88 0 0 1 29.3 14.5c3 2.1 6.9 5.8 9.4 9 2.4 3.2 8 12.1 8 12.8 0 .4.8 2.6 1.9 5 4.2 9.5 5.7 23 3.7 34.7-.5 3.3-4.4 15.8-5.8 19-4.1 9-20 27-23.7 27q-.8 0-1.3.9c-.5 1.4-14 7-21 8.6-8 1.9-23.4 2-33.1 0A76 76 0 0 1 1160 390c-3-9-3.8-25.2-1.6-34a69 69 0 0 1 51.1-49.3l9-2.1c5-1.2 24.3.3 31.8 2.4zm111 74c1.4.5 3 2.2 3.6 4 1.5 4.4 1.4 13.2-.2 15.3-1.7 2.2-6.7 3.4-6.7 1.6 0-2.9-2-18.2-2.5-20-.7-2.2 1.6-2.5 5.8-1zm-232.8 8.6q22.6 7.7 18.5 25.4l-1.2 5 5.6 7.4q16.3 21.7 10 34.8c-4 8.3-16 11.3-25 6.2-2.7-1.5-6.3-4-8-5.6-2.7-2.6-3.2-2.7-4.4-1.3-1 1.2-1 1.8 0 3 2 2.4-.6 13.2-5 21.7-.6 1-1 2.7-1 3.8q0 1.8-.9 2c-.5 0-1.4 1.4-2.1 3-1.9 4.4-4.8 6-11 6-6.8 0-10.1-3.1-12.5-11.4-1.6-5.5-1.6-6 0-10.5 2.3-6 8.4-20.2 9.6-22.1 2.2-3.5 3.2-5.2 4-5.9.9-.7 1.5-.3 2.8.3 1.4.6 3.6 1.7 4.6 2.7 2.4 2.1 2.9 2.3 4.4.5 1.8-2.2-6.2-9-9.8-8.1-2 .4-3.2 0-4.6-1.5-2.3-2.5-3.7-2.5-6 0-1.7 1.8-1.7 2-.2 2q1.5.1 2 .8c.9 1.3-2.3 9.5-4.4 11.5-1 1-2 2.9-2 4.2s-.3 2.5-.8 2.5-1.3 1.4-1.7 3.2c-2.3 10.7-9 16.8-18.4 16.8-3.7 0-5.2-.5-7-2.5-5-5.3-4.3-19.4 1.7-31.3l3.6-7.3 8.6.8c11.6 1 13.5 1 14-.2.2-.5-.8-1.8-2.1-2.8-2.2-1.6-2.9-1.7-4.6-.6-1.8 1.1-2.4 1-4.1-.5q-2.1-2-5-1.3-3 .6-3.7-.4t-3-.5c-1.7.5-3-.4-6.3-3.9-4.7-5-5.6-7.7-5-14.5 1.3-12.1 16.7-23.5 29.1-21.5 3.4.5 3.8 0 8.1-4.4a22 22 0 0 1 13.2-7.5c3.4-.9 14.8.3 20 2zM1292 601c.8.5 1.1 1.6.8 2.4-.3 1-.2 2 .3 2.1q1 .5 1.3 3.1c.3 1.7 1 4.3 1.6 5.9s1 3 .7 3.3c-.2.3.2 2.3 1 4.5 1.4 4 1.4 4-.9 3.5l-10.7-2.2q-11.4-2.4-7-5 1-.6 1-2c0-1.4 9.1-16.3 10-16.4q.5 0 2 .8zm-280.2-325.3c-2.6.8-4.7 2-4.7 2.5q-.1 1-2.4 1.9-2.4 1-4.6 5.7c-1.1 2.6-2.5 5-3 5.3-1.2.8-2 13-.9 13 .5 0 .9 1.5.9 3.4 0 3.3 1.5 5.4 7.6 10.5a16 16 0 0 0 11.7 4.1h4l-3.3-3.5c-1.9-2-4-3.5-5-3.5-4.1-.1-11.6-8.4-10.4-11.5.4-.9 0-2.2-.6-3-1-1.3-1-2 .5-3.5q1.8-1.9 1.2-5c-.5-2.4 0-3.4 2.8-5.8 4.5-4 9-5.4 16.4-5 5.7.4 6.5.7 10.5 4.6 3.8 3.8 4.4 4.1 5.6 2.7 3-3.7-11-14.6-18.4-14.4a37 37 0 0 0-7.9 1.5zm17.3 23.8q-1.4 1.7-.3 2.9c.6.6 1.3 2.6 1.6 4.3.5 2.6.2 3.3-2.4 4.8-2.7 1.6-3.2 1.6-5.9.3-2.4-1.2-3.1-1.3-4-.3-1.4 1.8 4.7 7.3 7.8 7 3.2-.2 10-7 10.8-10.7.5-2.5 0-3.5-2.8-6.4-3-3-3.6-3.2-4.7-1.8zM1187 340c-1.5.4-3.6 1.7-4.7 2.8-2 2-2 2-.3 3.7 2 1.7 2.7 1.5 9.8-1.8q2.3-1 3.6.1c.7.6 2.2.9 3.2.6q2-.5 7.1 4c4.4 4 5.3 4.4 6.4 3 1-1.1.7-2-1.4-4.9a23 23 0 0 0-23.7-7.5zm-10 7.3c-.9.7-2 2.2-2.3 3.5-.4 1.2-1.5 3-2.3 3.8-3.6 3.6-1.2 24.4 2.7 24.4q1 .1 1 1.5.2 1.4 1.5 1.5 1.5.1 2.2 1.5c.3.8 1.4 1.5 2.4 1.5s2 .5 2 1 2 1 4.6 1h4.7l-3.4-3.5c-1.8-2-4.1-3.5-5-3.5-2.2 0-5.4-3.8-6.8-8a18 18 0 0 0-2.8-5.2c-1.6-1.7-1.6-2 0-3.7 1-1 1.9-3.8 2-6q.2-4 2.4-6.4c1.7-1.8 2-2.6 1-3.5-1.4-1.5-1.9-1.5-3.9 0zm26 17.2c-1 1.3-1 1.8-.1 2.4.6.4 1.5 2 1.8 3.8.7 3.5-2 7.3-5.4 7.3-2.8 0-5.6-4.4-4.7-7.8.6-2.7.6-2.7-3 .7-1.9 2-3.5 3.6-3.5 3.8s1.6 2.1 3.6 4.3c3 3.2 4 3.8 5 2.9 1.2-1 1.7-1 3.2.4 1.7 1.5 2.1 1.3 6.5-3.1 3.6-3.6 4.4-5 3.6-6q-1.5-1 0-2.5c.8-1 .3-2-2.2-4.6-3-2.9-3.5-3-4.7-1.6zm-413.3-.6c-1.1 1.8 5 6.1 8.5 6 1.9 0 4.7.2 6.4.6 1.6.3 4 .6 5.2.6s2.5.3 2.8.9q.6.8 2 .3c.8-.3 2.2 0 3.1.8 2.2 1.8 8.3 3.9 9.8 3.3.7-.3 1.8.2 2.5 1 .6.7 2 1.2 3 1 .9-.3 2.5.4 3.5 1.5l2 2.1 2.3-2.2 2.3-2.2-6-2.8a49 49 0 0 0-7-2.8c-.4 0-2-.7-3.6-1.5s-4.5-1.8-6.4-2c-2-.4-4.4-1-5.5-1.5-6-2.6-23.8-4.9-25-3.2zm55.5 16.4c-1.1 1.4 2.6 5.6 8 9 2.6 1.5 2.7 1.5 4.5-.4s1.7-2-.2-3.4c-1-.8-4-2.5-6.5-4-3.8-2-4.9-2.2-5.8-1.2zm487.2 197.9c-2 2-2 2.8-1.1 7.3.6 2.8 1.5 5.6 2.1 6.4a12 12 0 0 1 1.3 5.3 11 11 0 0 0 1.8 5.7c.8.9 1.3 2.6 1 3.7-.6 2.1 5 8.3 6 6.6.3-.5-1-6.7-3-13.8s-4-15.3-4.8-18.2c-1.2-5.3-1.2-5.3-3.3-3zm9.3 38.7c-1.5 1.6-1.5 2.5-.6 6.7.6 2.7 1.5 5.6 2 6.5s.7 2.5.4 3.5q-.5 2 2.7 5c3.2 3 3.2 3 2.5-2.9a84 84 0 0 0-4.6-20.7c-.4 0-1.5.9-2.4 1.9zm-86.3 44.3-2.2 2.1 2.6 1.4c1.4.7 3 1.3 3.8 1.3s4 .9 7.4 2c11.8 3.8 32 6.8 41.5 6.2l3-.2-2.9-3c-3.4-3.6-4.2-3.7-7.2-.8l-2.3 2.2-2.8-2.7c-1.6-1.5-3.1-2.4-3.5-2q-.7.4-2.2-.7c-.8-.7-2.2-1-3-.6-.9.3-2.3.1-3.3-.4a53 53 0 0 0-8.7-2.4c-6.4-1.4-7-1.4-8.7.1s-2 1.4-5.1-1.5c-2-2-2.9-2.9-3.6-3s-1.4.6-2.8 2zm-976 44c-1.8.4-3.3 1.3-3.3 1.9s-1.7 1.8-3.8 2.7C267.5 712 258 721.4 258 724q-.1 1.8-1 2c-.6 0-1 1.6-1 3.5 0 2-.3 3.5-.7 3.5-1.2 0-.6 12.4.6 12.8q1 .5 1.1 1.7c0 1.6 4.6 6.5 6 6.5.6 0 1 1.4 1 3s.5 3 1 3q1 .1 1 1.9c0 2.1 3 5.1 5.1 5.1.8 0 2.4.7 3.5 1.5a12 12 0 0 0 5.8 1.5h4l-3.4-3.5c-2-2-4-3.3-4.9-3-1.6.7-5-2.2-5-4.2 0-.8-2.1-4-4.6-7.2a23 23 0 0 1-4.5-7.8c0-1.1-1-3.2-2.1-4.7-1.9-2.4-2-2.9-.6-4.4q1.3-1.7 1-2.8c-.2-.6.3-1.7 1.2-2.4s1.5-2 1.5-3c0-2.5 10.8-14 13.1-14s10.1-6.8 9.3-8.1c-.6-1-1.8-1-6.1.2z"/><path fill="#f8cc98" fill-rule="evenodd" stroke="#f8cc98" stroke-linejoin="round" stroke-width=".8" d="M979.7 184.7c-1.1 1 4.4 6.2 6 5.6.8-.3 2.6.5 4.1 1.9a71 71 0 0 0 6.8 5.2c4 2.6 10.4 9.6 10.4 11.4 0 .5 1.1 2 2.5 3.2s2.4 3 2.1 3.6 1 2.6 2.8 4.3l3.2 3.1 2.9-3c1.6-1.6 2.5-3 2-3.1l-2.9-.2c-1.2-.1-3.4-2.7-6-7A59 59 0 0 0 995 190c-1-.8-3.7-2.1-6-2.9s-4-1.7-4-2.1c0-1-4.4-1.2-5.4-.2zM1054 211c-2 .5-4.2.7-5.1.4-1-.2-2.9 0-4.3.7-2.6 1.2-2.6 1.2-.4 3.6 2.6 2.8 3.6 2.9 6.4.2 2.3-2.1 3.3-2 6.6.3 1.5 1.1 2.3.8 5-2s3-3.2 1.3-3.2c-1.1 0-2.9-.2-4-.4a16 16 0 0 0-5.5.5zm35.6-.3c-2.8.5-2.8.5 0 3.4 1.5 1.6 3.7 2.9 5 2.9 2 0 7.2-4.5 6.3-5.5a29 29 0 0 0-11.3-.8zm106 23c-.3.4.6 2 2 3.5 2.1 2.1 3 2.5 4.1 1.6s2-.5 4 1.4c1.6 1.4 3.3 2.4 3.9 2.1q1-.2 2.3 1c.6.8 2 1.3 3 1 .9-.2 2.5.5 3.5 1.6 1 1 2.4 1.7 3.2 1.4s2.5.4 3.8 1.6c2.3 2.1 2.3 2.1 4.1.1s1.8-2 0-3.5c-1.1-.8-2.6-1.4-3.4-1.5-.7 0-2.5-.6-4-1.3a170 170 0 0 0-16.9-7.1c-1.7-.4-3.4-1.2-3.8-1.7-.6-1-4.8-1.2-5.8-.2zm48 21.1c-.3.5 1.2 2.6 3.4 4.6 3.7 3.4 5.2 4 7.4 3.7.5-.1 2 .9 3.5 2.2 1.4 1.4 4.2 3.3 6.1 4.4a319 319 0 0 1 38.2 27.7c8 7 9.8 8.2 10.8 7 1-1 .7-2-1-4.4-1.2-1.7-2.5-3-2.8-3-.4 0-2.8-2-5.3-4.3a164 164 0 0 0-13.3-11.3 56 56 0 0 0-6.2-4.5 48 48 0 0 1-5.8-4.1c-1.1-1-3.2-2.4-4.8-3s-2.8-1.6-2.8-2q-.2-.5-1.8-1.2a20 20 0 0 1-6.2-3.8c-.3-.3-2-1.3-4-2.2s-4.9-2.5-6.5-3.6c-3.8-2.4-8.1-3.5-8.9-2.2zm-319.5 18.6q-1.4 1.5-.2 2c1.6 1 1.2 4.4-.5 6.2q-1.3 1.3-1.4 2.2t-1.5 1.6c-1.9.7-2 3-.2 4.5 1.5 1.2 3.8-.9 9-8 2.6-3.6 2.6-3.6-.7-6.8-2.8-2.7-3.5-3-4.5-1.7zm390.7 33.3c-1.5 1.4-1.1 2.2 4.2 8.7 7.7 9.5 8.4 10 10 8.1 1-1.3.4-2.7-4.4-9-7.3-9.4-7.8-9.9-9.8-7.9zm14 18.9c-1.4 1.4-1.4 2 .9 5.9 1.3 2.4 3 4.8 3.8 5.5q1.3 1.2 1.5 2.3c0 .6 1.4 2.5 3 4.2 2.4 2.5 3.8 3.2 6.1 2.8 3.4-.5 10-7.4 8-8.1q-1.2-.3-2 .4c-.3.5-2.7 1-5.2 1-4.1.2-4.8 0-5.8-2.4a68 68 0 0 0-8-13.2q-.8.1-2.3 1.6zm49.8 19.2c-.6 1 4.6 6 10 9.5 2.3 1.4 5.7 4.5 7.5 6.8 8.4 10.4 10.1 12 11.5 10.8 1.2-1 1-1.8-.8-5-1.2-2.1-2.5-3.9-3-3.9-.3 0-1-.8-1.2-1.8-.4-1-1.7-2.4-3-3.1-1.2-.7-3-2.6-4-4.2s-2.4-2.9-3.2-2.9q-1.4-.1-2-1.5t-2-1.5q-1.3 0-1.4-.9c0-.5-1.4-1.4-3.1-2-3.8-1.3-4.6-1.4-5.3-.3zM884.7 356c-1 1.1-1.7 3-1.7 4q0 1.8-1 2t-1 2a13 13 0 0 1-1.4 4.8c-.7 1.5-2 4-2.6 5.7l-2.5 5.5a29 29 0 0 0-2 5.7c-.4 1.8-1 3.4-1.5 3.4q-.8.1-1.5 1.9c-.6 1.8-1.2 1.6-7.8-2.8a138 138 0 0 0-29.7-15.5c-4-1.7-16.5-5.3-25.5-7.5-6.2-1.5-29.5-2.4-29.5-1.2 0 .7-10.7 3.5-12.8 3.3q-1.1 0-1.2.7c0 .4-1.2 1-2.8 1.4s-3.7 1.2-4.5 2q-1.5 1.5-2.6 1.6-1 .1-1.1 1.3c0 1.6-11.1 12.7-12.8 12.7q-1.1.2-1.2 1.6-.1 1.3-1 1.4-1 .2-1 2c0 1.8-.7 2-5.7 2h-5.7l3.4 3.5 3.3 3.4-1.8 9.9c-2.2 12.3-1.6 17.9 2.7 22.7q3 3.5 6.8 4.1c2.1.4 4.9 1.7 6 3q4.8 5 14 1.9c6.2-2 18.2-13 26.3-23.9l5.1-6.8 5.6.5c3 .4 13.4 2 23 3.7s21.2 3.3 25.8 3.7l8.3.6 5-4.9c7.3-7 12.9-14.3 12.9-16.6 0-1.1 1.3-3.6 3-5.4 1.6-2 2.7-4 2.3-4.9-.3-.8.6-2.8 2-4.5s2.4-3.6 2.1-4.4q-.3-1.2 1-2.5c.8-.7 1.2-1.8 1-2.5-.3-.7.2-1.9 1-2.6 1.4-1 1.4-1.5.4-2.7-.9-1-.6-2 1.5-4.2 1.5-1.5 2.4-3 2-3.4q-.4-.8 1-2.5c1.6-1.8 1.6-2-.1-3.5-1.8-1.6-1.9-1.6-3.5.3zm-329.1 24.8c-.4.4-3.5.8-7 1-11.1.4-14 .7-15.4 1.5-.7.5-2.6.6-4.1.2q-2.9-.6-3.6.5c-.4.6-1.7.9-3 .6s-3.4 0-4.9.7l-2.6 1.4 2.6 2.4c2.1 2 2.8 2.1 4.5 1 1.1-.6 3-.9 4-.6a4 4 0 0 0 3.9-1c1.6-1.4 2-1.5 3.9-.4 1.7 1.2 2.4 1 4.6-1 2.3-2.3 2.6-2.3 4.3-.8 2.4 2.2 6 2.2 8.4 0 1.6-1.4 2.3-1.5 3.9-.5a15 15 0 0 0 6.2 1.2c3.5 0 4.9-.6 7-2.9l2.8-2.8-3.8-.6c-5.2-.9-10.8-.9-11.7 0zm60 0c-2.8.4-2.8.4 0 3.3 3.8 4 10.9 4.2 14.4.4 2.3-2.4 2.3-2.4-.4-3.5-2.7-1-8.4-1.1-14-.3zm21 .9-2.8.5 2.8 2.9q4.6 5 8.6 1.2c1.7-1.5 2-1.5 4.1.5 2.6 2.4 5.7 2.8 7.5 1 .9-.9 1.6-.7 3.2.7 1.8 1.6 2.3 1.7 4.5.5s2.7-1.2 4.3.3c2.5 2.2 3.4 2.1 6-.7l2.3-2.4-2.3-.7c-2.7-1-8.5-1.5-14.5-1.5-2.4 0-4.3-.4-4.3-1s-2.3-1-5.2-.9a59 59 0 0 1-8.3-.4c-1.6-.3-4.3-.3-5.8 0zM1079 395c-14.5 2.5-25.9 15-25.9 28.5 0 7.5 2 11.7 8.6 17l5 4 15 1.3c15.8 1.4 25.6 4.1 31 8.3a191 191 0 0 1 11 9.9c16.2 15.6 25.9 16.8 38 4.6 5.3-5.2 6.3-6.8 6.9-10.7q2.3-16.1-15.7-34.6l-6-6.1-3.6 1.5c-8.3 3.5-24.6.8-37.6-6-5-2.6-6.3-4-8.2-8-4.6-10-7.5-11.5-18.6-9.7zM461 399.2c0 .4-1.8 1-4 1.4s-4 1-4 1.5q-.2.9-2.3 1c-1.4 0-2.8.3-3 1s-1.5 1.2-3 1.4a10 10 0 0 0-4.6 2.2c-2.1 2-2.1 2-.3 3.6s2 1.7 4.6-.4c1.5-1.2 3-1.9 3.3-1.5q.8.4 2.5-1c1-1 2.1-1.4 2.5-1s2-.6 3.4-2c2.2-2.1 3.1-2.5 4.2-1.6 1 .9 2 .5 4.2-1.8 1.6-1.7 2.7-3 2.4-3.1-1.8-.6-6-.3-6 .3zM423.4 416c-1 1.1-2.5 2-3.5 2q-1.7 0-1.9.9c0 .5-1.1 1.2-2.5 1.5q-2.3.6-2.5 1.6t-1.7 1q-2.7 0 .4 1a7 7 0 0 1 2.8 2q.7 1.1 4-1.4a14 14 0 0 1 4.4-2.6c1.7 0 8.2-6.1 7.6-7.1-1-1.6-5.4-1-7.1 1.1zm896.8 116.4c-3.2 3-6.6 7.7-9.3 13a74 74 0 0 1-10.4 14.7c-8.8 9.4-11.5 15.3-11.5 24.9 0 4.1.8 9.3 1.6 11.5 2.3 6.3 8.5 28.8 8 29.3-.3.2-5.8-.8-12.6-2.3l-12.5-2.5-3.8 3.8c-2.1 2-6.4 7.3-9.5 11.7s-7.6 10.6-10 13.8l-4.4 5.9 3.7 3.8c3 3.1 5.3 4.2 12.9 6.4 20.5 5.7 29.1 7 46.6 7 16 .1 16.7 0 21.5-2.6 6.4-3.3 13.8-11 16.4-16.8a44 44 0 0 0 1-23.6c-1.6-8.8-10-39.7-11.1-41.2q-1-1.2-.4-1.9c1-1-4.5-6.2-6-5.6-2.9 1.1-1.3-3.8 2.2-6.9 2.7-2.4 3.4-3.7 3-5.4q-.6-2.2.4-3 1-.6.5-1.5c-.4-.5-.3-1.5.2-2.1q.7-1.2.8-2.3c0-.5.7-2.1 1.3-3.5s1.5-5 2.2-8.2c2.4-10.6-2.6-19.5-11.5-20.5-4-.5-4.6-.2-9.3 4.1zM314.5 586.1c-6.6 2.3-13.2 4.7-14.7 5.5s-3.6 1.4-4.7 1.4q-2 .1-2.1.8c0 1-6.5 4.2-8.5 4.2-.9 0-2.3.9-3.2 2-1 1-2.4 2-3.4 2q-1.7 0-1.9 1t-1.4 1q-1.3.2-2 1.5t-2 1.5q-1.6 0-1.6 1c0 1.6-13.1 15-14.7 15q-1.3 0-.9.9c.3.5-.6 3.3-2 6.2-3.4 6.7-4.4 17-2 21.5a29 29 0 0 0 5.8 6.7c5.5 4.7 7.2 6.3 11 11 5.8 7.1 14.2 8.6 23.5 4.2 3-1.3 10.8-6.7 17.6-11.8 6.7-5.2 14.9-11.2 18.2-13.4 7.9-5.4 13-10.7 11.9-12.5-.5-.7-1-3.7-1.1-6.7q-.2-5.2-2-7.3c-1.4-1.6-1.5-2.3-.5-3.9 1.9-3 1.4-4.5-2.3-7.8-4.3-3.7-4.4-5.5-.5-8.8 2.6-2.2 3-3.1 3-7.7s-.4-5.6-3.3-8.4a22 22 0 0 0-3.8-3.2c-.2 0-5.8 1.8-12.4 4.1zm-39 58.9c-1 1-2.3 2-2.8 2s0-1.1 1.3-2.5q2.1-2.1 2.8-2 .6.3-1.3 2.5zm67 25q-.4 1 0 2c1.4 2.2-2 5-11 9.4a67 67 0 0 1-11.3 4.6c-1 0-2.8 1-4.2 2s-3.5 2-4.7 2q-2.1.1-2.3.8c0 1.1-6.6 4.2-9 4.2-1 0-2.5.6-3.2 1.4-2.2 2.2-7.8 4.8-8.8 4.1q-.9-.4-1 .5t-1 .5-1 .5-1 .5q-1-.6-1 .4c0 1.3-7 5.3-8 4.6q-1-.4-1 .5 0 1.2-1 .5c-.5-.3-1.3.1-1.6 1s-1.3 1.5-2 1.5q-1.3.1-.9 1c.4.7-1.7 3.7-4.7 6.9-4.3 4.6-6.4 6.8-7.4 9s-1 4.3-.9 8.8c0 6.5.4 8.6 2 10.3 2 2.3 4.2 5.7 5.1 8.3q.7 1.6 1.5 1.7t1 1.4c0 2.5 9.5 10.4 13.4 11.2 9.5 1.8 16.5-.9 46.5-17.7a1084 1084 0 0 1 33.8-18.2 78 78 0 0 0 15.9-9.9l4.2-4-5.4-6.3a164 164 0 0 1-17.7-26c-1.4-2.7-3.8-6-5.2-7.4s-2.4-3.1-2-4c.6-2-5-7.8-6-6.2zm47.2 62.8c-1.4 1.4-1.7 1.4-3.3.2l-1.5-1.1 1 1.4c.7 1 2.2 1.7 3 1.7q1.1.2 1.7 1.5.8 1.4 2 1.5 1.4.2 2 1.5t2 1.5q1.3.1 1.4 1 .2 1 1.5 1 1.4.1 1.5 1t1.5 1q1.4 0 1.5.9c0 1.5 3.9 2 5 .7 1.2-1.5-1.7-4.4-11.1-10.8-6-4.1-6.8-4.4-8.2-3z"/><path fill="#74cce0" fill-rule="evenodd" stroke="#74cce0" stroke-linejoin="round" stroke-width=".8" d="M1011.8 275.6c-2.7.8-4.8 2-4.8 2.5q-.1 1-2.4 1.9-2.4 1-4.6 5.7c-1.1 2.6-2.5 5-3 5.3-1.2.8-2 13-.9 13 .5 0 .9 1.5.9 3.4 0 3.3 1.5 5.4 7.6 10.5a16 16 0 0 0 11.7 4.1h4l-3.3-3.5c-1.9-2-4-3.5-5-3.5-4.1-.1-11.6-8.4-10.4-11.5.4-.9 0-2.2-.6-3-1-1.3-1-2 .5-3.5q1.8-1.9 1.2-5c-.5-2.4 0-3.4 2.8-5.8 4.5-4 9-5.4 16.4-5 5.7.4 6.5.7 10.5 4.6 3.8 3.8 4.4 4.1 5.6 2.7 3-3.7-11-14.6-18.4-14.4a37 37 0 0 0-7.9 1.5zm17.3 23.8q-1.4 1.7-.4 2.9c.6.6 1.3 2.6 1.6 4.3.5 2.6.2 3.3-2.4 4.8-2.7 1.6-3.2 1.6-5.9.3-2.4-1.2-3.1-1.3-4-.3-1.4 1.8 4.7 7.3 7.8 7 3.2-.2 10-7 10.8-10.7.5-2.5 0-3.5-2.8-6.4-3-3-3.6-3.2-4.7-1.8zm157.8 40.6c-1.5.4-3.6 1.7-4.7 2.8-2 2-2 2-.3 3.7 2 1.7 2.7 1.5 9.8-1.8q2.3-1 3.6.1c.7.6 2.2.9 3.2.6q2-.5 7.1 4c4.4 4 5.3 4.4 6.4 3 1-1.1.7-2-1.4-4.9a23 23 0 0 0-23.7-7.5zm-10 7.3c-.9.7-2 2.2-2.3 3.5-.4 1.2-1.5 3-2.3 3.8-3.6 3.6-1.2 24.4 2.7 24.4q1 .1 1 1.5.2 1.4 1.5 1.5 1.5.1 2.2 1.5c.3.8 1.4 1.5 2.4 1.5s2 .5 2 1 2 1 4.6 1h4.7l-3.4-3.5c-1.8-2-4.1-3.5-5-3.5-2.2 0-5.4-3.8-6.8-8a18 18 0 0 0-2.8-5.2c-1.6-1.7-1.6-2 0-3.7 1-1 1.9-3.8 2-6q.2-4 2.4-6.4c1.7-1.8 2-2.6 1-3.5-1.4-1.5-1.9-1.5-3.9 0zm26 17.2c-1 1.3-1 1.8-.1 2.4.6.4 1.5 2 1.8 3.8.7 3.5-2 7.3-5.4 7.3-2.8 0-5.6-4.4-4.7-7.8.6-2.7.6-2.7-3 .7-1.9 2-3.5 3.6-3.5 3.8s1.6 2.1 3.6 4.3c3 3.2 4 3.8 5 2.9 1.2-1 1.7-1 3.2.4 1.7 1.5 2.1 1.3 6.5-3.1 3.6-3.6 4.4-5 3.6-6q-1.5-1 0-2.5c.8-1 .3-2-2.2-4.6-3-2.9-3.5-3-4.7-1.6z"/><path fill="#fdfdfd" fill-rule="evenodd" stroke="#fdfdfd" stroke-linejoin="round" stroke-width=".8" d="M1064.5 454.3a26 26 0 0 0-2.4 6.7q.1 1 1.4-2c.7-2 2-5.1 3-6.8.8-1.8 1.3-3.2 1-3.2s-1.7 2.4-3 5.3z"/><path fill="#040505" fill-rule="evenodd" stroke="#040505" stroke-linejoin="round" stroke-opacity=".7" stroke-width="1.5" d="M954.5 181a56 56 0 0 0-49 50 57 57 0 0 0 4.9 26.7c2.9 5.8 11 16.8 13.7 18.7 1.9 1.3 1.5 2-7.7 15.7a338 338 0 0 0-33.2 66.9q-13.1 33.9-14.7 34c-.4 0-2.8-1.5-5.4-3.3-22.7-16.5-59.6-28.5-80.6-26.2a58 58 0 0 0-45 26.4c-2.7 4.8-3.2 5.2-6 4.7l-26.5-4.5a640 640 0 0 0-160-8c-132.6 11.6-205.2 76.3-216.5 193l-.6 6.6-6.2 1.7c-8 2.3-26.6 9.5-34.8 13.6-27.3 13.8-43.5 35.8-39 53 1.5 5.2 6.7 10.8 10.9 11.6 2.4.5 3.2 1.4 4.1 4.5 2.9 9.5 15.8 12.8 28.3 7.3 3.5-1.6 12.8-7.7 20.6-13.7q20.9-15.8 21.6-14.6c.2.2 1.1 3.5 2.1 7.4s3.1 10.4 4.7 14.5l2.8 8c0 .4-12.7 6.5-28.2 13.5C270 708.8 263.6 713 257 726c-4.5 9-2 24.2 4.6 27.2 1.3.6 2.4 2 2.4 3 0 4.7 5.2 10.7 11 12.7 10.5 3.5 22.1-.2 49.5-15.9 17.7-10 51-28 52.3-28 .6 0 3 1.8 5.4 4 24 22.6 60.2 39.5 101.3 47.4 40.9 7.8 66.6 8.6 220.2 6.6 171.4-2.1 250-4 285.3-6.5 119.7-8.7 191.4-39.1 251.7-106.8l6.9-7.8 4.5 1.6c9.6 3.5 31 8.4 43.4 10q50 6.5 53.2-27.9c.8-8.3-.5-15.5-7.8-43.1-7-26.4-7-27.8-2-45.5a84 84 0 0 0 3.1-13.6c0-4.5-4-11.4-7.8-13.5l-3.9-2.2c-.2-.3 1.3-4.5 3.5-9.4a291 291 0 0 0 19.4-63c.3-2.2.9-2.3 9.8-2.8 11.1-.5 17.1-2 26-6.4 16.5-8.4 26-25.6 26-47 0-17.8-5.1-30.3-17.5-42.7a52 52 0 0 0-43.5-17c-5.2.3-10.4.8-11.5 1.1-1.6.5-2.5-.5-5.4-6-26.7-52-107.6-99.8-199-117.8-39.2-7.7-79.4-8.3-110.5-1.6l-9.7 2c-.4 0-2.2-2.9-4-6.3a61 61 0 0 0-59.4-29.8zm23.1 8A54 54 0 0 1 1007 211c2.5 3.9 3.8 5.7 2.6 7.4-1.2 1.6-4.8 3-12 6s-14.2 6-15.5 7c-2.3 1.6-2.4 1.5-5.3-3-5.5-8.2-15-12.7-22.2-10.3-13.6 4.5-17.2 21-6.8 32.1l2.4 2.6-10.2 10.4-10.2 10.4-5.2-5.7a47 47 0 0 1-8.6-53.3 52 52 0 0 1 61.8-25.4zm133.7 29.5c62.3 7.5 127.4 32.3 172.7 65.9 13.7 10 33.3 30 40.9 41.6a169 169 0 0 1 24.8 59.5 235 235 0 0 1 0 58c-4.1 25.1-11.6 50.3-22.1 74.3-3.4 7.7-6 11.9-10 16.2a41 41 0 0 0-7.9 12.3c-2 4.9-4 7.9-8.5 12.1a58 58 0 0 0-9.3 11.9 23 23 0 0 0-3.5 13.9c-.1 8.6-.5 9.3-17.8 35.3-60.6 91.3-126.6 131.7-240.1 147-47.8 6.3-69.3 7-359 10.6-116.4 1.5-144.4.7-177.5-4.7-74.7-12.4-124.8-48.6-148-107-14.4-36.1-15.9-88.2-4-133.3 21-78.6 80-126 175.4-140.5 56.3-8.7 122.3-7 190 5 24.6 4.3 24.7 4.3 23.7 6.2-.5 1-1.7 5.4-2.6 10-2.8 13.5.6 22.7 9 24.8 1.6.4 4.2 1.7 5.7 3 10.7 8.8 29.2-1.2 44.6-24.4q3.5-5.3 5.1-4.8a2609.9 2609.9 0 0 1 28.6 5.2c14.5 2.6 22 3.5 27.2 3.2 7-.4 7.4-.5 11.8-4.8 9.4-9.2 15-19.6 27-51 9.7-25.2 20.5-48 29-61.5 33.8-53.6 75-79 138.5-85.5 11.5-1.2 40.6-.4 56.3 1.5zm-73.3 18.1c-26.4 5.2-44 18-54.5 40a71 71 0 0 0 16.5 82.6 86 86 0 0 0 61.5 21.4 71 71 0 0 0 62.1-102.3c-12.4-24.4-40.5-41-71-41.8-6.7-.2-13.2-.2-14.6.1zm33.5 7.4a95 95 0 0 1 30.3 15.4c24.6 20.2 30.9 50.7 16.5 80.5-25.7 53.6-113.4 45.5-133.3-12.3a66 66 0 0 1 17.1-68.7c8.9-8.5 22.6-15 36.4-17.2 6.8-1.1 25.1.2 33 2.3zm-62 32.8c-16.5 7.7-19 32.5-4.1 41.6a22 22 0 0 0 28.7-4.2c4.5-5.1 6.2-9.8 6.3-17.3 0-8-3.3-14.5-9.6-18.6a25 25 0 0 0-21.3-1.5zm202.2 23.8A77 77 0 0 0 1161 336a68 68 0 0 0 2.5 72.8 84 84 0 0 0 70.6 36.4c14.4.1 22.5-1.7 34.9-7.9a73 73 0 0 0 39.2-58c4.2-32.7-16.7-63.8-50.6-75.4a90 90 0 0 0-45.8-3.3zm-182.3 2.6q3.2 4.3-.4 7.8c-5.4 5.4-13.4-2.5-8.3-8.2 2.3-2.5 6.8-2.3 8.7.4zm215.4 2.4c4.2.9 11 2.8 15 4.4a66 66 0 0 1 43.3 69.6 68 68 0 0 1-80.3 60c-38.2-5.6-65.8-34.5-66.1-69-.4-42.8 42.5-74.4 88.1-65zm-57 34.3a25.7 25.7 0 0 0-15.4 34.7 21.4 21.4 0 0 0 37 3.9c4.1-5.3 5.6-9.8 5.6-16.8a22 22 0 0 0-27.2-21.8zm184.8 7.6a53 53 0 0 1 35 37 51 51 0 0 1 1.2 17.4c-.4 10.5-.7 12.3-3.6 18.4q-11.4 24.2-41.6 26.4l-9 .6.7-3.9c.4-2.1 1.2-10.7 1.9-19.1 1.2-15 1.2-15.2 3.7-15.8 7-1.8 11-7.6 11-15.7 0-10.4-5.8-17.7-14.8-18.8-4.4-.5-4.5-.6-5.6-5-.7-2.5-2.7-8.5-4.5-13.3s-3-9-2.8-9.2c1-1 12.3-2.1 16.8-1.7 2.5.3 7.7 1.4 11.6 2.7zm-169.2 20c2 2.1 2 6.4 0 8.7-3.4 3.7-9.4 1.2-9.4-4s6-8.1 9.4-4.6zm-395.9 4c11.4 2.4 18.3 4.9 32.2 11.5 12.6 6 24 13.2 25 15.6q1 2.4-6.9 11c-5.7 6.2-7.5 6.3-34.6 1.5a728 728 0 0 0-28.8-4.7l-5.9-.6-5.3 7.6a71 71 0 0 1-21.4 22c-6.4 3.2-12.7 3.5-15.3.6-1.7-1.8-1.6-2.2 1.3-8.4a91 91 0 0 1 5.5-10.1c2.7-4 2.6-6.5-.2-6.5-2 0-9.3 11-11.4 17-1.7 5.2-2.6 5.7-5.7 3.2-4.8-4-3.6-19 2.7-32.2 4.5-9.3 15-20.4 23.3-24.2 12.4-5.9 28.2-7 45.5-3.3zm297.2 11c-5.7 1.5-9.4 4-12.2 8.2-1.8 2.8-2.6 3-9 3.6-10.4.8-15.8 3.1-22.1 9.2-6.7 6.6-9.4 12.1-9.4 19.5q0 11.3 8.4 17.1l4.4 3.2-2.2 3.6c-10 16-9.6 37.4.7 42.8 4.3 2.1 11.5 2 17.2-.6l5-2.1c.2 0 .6 1.7 1 3.7.9 5 2.7 8.2 6.5 11.8 2.7 2.6 4 3 10.3 3.3 12 .6 15.4-3 22.8-24.7l3.5-10c.1-.1 2.2.9 4.6 2.3a21 21 0 0 0 24.9-1.7c5.7-4.4 7.7-7.3 8.8-13.2 1.8-9.5-1.8-19.5-11.3-32.2-5-6.6-5.1-6.9-4-10.3 2.7-7.6 1-13.5-6.2-21a44 44 0 0 0-41.7-12.6zm-17.2 17c1.2.4 2.8 2.4 3.9 5.1 3.4 8.3 12.7 15 27.1 19.4a44 44 0 0 0 24.7.7c3.6-1.5 3.6-1.5 6.6 1.7 17.7 18.9 17.4 40.4-.6 44.4-8.4 2-12 0-26-13.7-12-11.6-16.7-13.7-35.8-15.6a200 200 0 0 1-18.4-2.5c-13.7-4-16.1-19.8-4.8-31.2 6.4-6.4 16.7-10 23.3-8.2zm1.3 47c5.6.4 10.4 1 10.7 1.5s-1 3.3-3 6.5c-1.8 3-5 10-7 15.3-4.2 11-6.4 13.5-14 15.7-4.7 1.4-5.7 1.4-8.8.2-8.8-3.7-8.5-23 .6-37.4 2.5-4 2.6-4 6.9-3.3 2.4.4 9 1.1 14.6 1.5zm20.7 5.5c1.6 1 6 5 9.6 8.6l6.7 6.6-4.2 12.1c-7 20-8.4 21.7-17.6 21.7-4.8 0-6-.4-8.2-2.8a30 30 0 0 1-5.8-14.1c0-4 14-34.1 15.8-34.1.4 0 2 .9 3.7 2zm223.5 84c3.5 3.5 3.6 6.7.1 20-2.6 10.1-4 15.2-3.7 21 .2 5.7 2 12 5.4 25 7 26.2 8.2 32 8.2 41 0 10.6-3.8 17.4-12.2 21.6q-15.1 7.8-50.5.4a159 159 0 0 1-27.7-8c-.4-.5 1.2-3.5 3.6-6.7 3.3-4.3 13.4-18.6 16.3-23 .1-.2 7.3 1 16 2.8 11.3 2.3 16 2.8 16.7 2 .8-.7-.5-6.6-4.6-21-6.9-23.9-7.7-29.9-4.9-36.2 2.7-6.1 10-15 12.2-15 2.5 0 3.5-1.5 5.1-7.2a45 45 0 0 1 10.7-17.6c2.9-1.7 7.1-1.3 9.3.9zM328.3 604.3c.3 8.9 1 18.9 1.6 22.2l1.6 8.7c.4 2.4-.3 3.2-5.8 7a496 496 0 0 0-18.4 13.5c-14.3 11-20.8 14.3-27.6 14.3-5.2 0-10.1-2-11-4.6-1.8-4.5-.7-6.7 8.4-16q9.3-9.3 8.6-10.9c-1.2-3-4.2-1.3-13.5 8a54 54 0 0 1-11.1 9.5c-5.1 0-8.7-7-7.8-15 2-16.5 20.6-33.2 50.2-45 8.8-3.6 21.4-7.9 23.1-8q1 0 1.7 16.2zm963.7-3.4c0 1 1.6 7 3.4 13.2a84 84 0 0 1 3.1 11.7c-.4.5-21.5-3.9-21.5-4.4 0-.2 2-3.4 4.3-7.1l6.7-11q3.9-7 4-2.4zm-943.4 84.4c2.8 6.1 12.3 20.4 18.7 28 4.2 4.8 5.3 6.8 4.4 7.5a1250.4 1250.4 0 0 0-46.7 25.1c-26.5 14.8-32 17.2-40.6 17.8q-14.3 1.1-14.4-9.8c0-3.6 4.7-10.2 12.5-17.9 4.7-4.6 5.5-6.7 3-7.6-2.3-1-15.2 11.3-19.5 18.4-.9 1.5-1.2 1.5-2.9-.5q-4.3-5.3-1.6-15c2.7-9.2 10-15.6 27.6-24.2 15-7.3 56-26 57-26 .3-.1 1.5 1.8 2.5 4.1z"/></svg>
